<svg xmlns="http://www.w3.org/2000/svg" width="1600" height="1000" viewBox="0 0 1600 1000">
  <defs>
    
    <marker id="arrow-2563eb" markerWidth="14" markerHeight="14" refX="10" refY="5" orient="auto">
      <path d="M0,0 L10,5 L0,10 Z" fill="#2563eb"/>
    </marker>
    <marker id="arrow-f97316" markerWidth="14" markerHeight="14" refX="10" refY="5" orient="auto">
      <path d="M0,0 L10,5 L0,10 Z" fill="#f97316"/>
    </marker>
    <marker id="arrow-0f766e" markerWidth="14" markerHeight="14" refX="10" refY="5" orient="auto">
      <path d="M0,0 L10,5 L0,10 Z" fill="#0f766e"/>
    </marker>
    <marker id="arrow-64748b" markerWidth="14" markerHeight="14" refX="10" refY="5" orient="auto">
      <path d="M0,0 L10,5 L0,10 Z" fill="#64748b"/>
    </marker>
    <marker id="arrow-dc2626" markerWidth="14" markerHeight="14" refX="10" refY="5" orient="auto">
      <path d="M0,0 L10,5 L0,10 Z" fill="#dc2626"/>
    </marker>
    <marker id="arrow-7c3aed" markerWidth="14" markerHeight="14" refX="10" refY="5" orient="auto">
      <path d="M0,0 L10,5 L0,10 Z" fill="#7c3aed"/>
    </marker>
    <filter id="softShadow" x="-20%" y="-20%" width="140%" height="140%">
      <feDropShadow dx="0" dy="14" stdDeviation="18" flood-color="#0f172a" flood-opacity="0.12"/>
    </filter>
    <linearGradient id="blueGrad" x1="0" y1="0" x2="1" y2="1">
      <stop offset="0%" stop-color="#1d4ed8"/>
      <stop offset="100%" stop-color="#38bdf8"/>
    </linearGradient>
    <linearGradient id="greenGrad" x1="0" y1="0" x2="1" y2="1">
      <stop offset="0%" stop-color="#0f766e"/>
      <stop offset="100%" stop-color="#5eead4"/>
    </linearGradient>
    <linearGradient id="orangeGrad" x1="0" y1="0" x2="1" y2="1">
      <stop offset="0%" stop-color="#ea580c"/>
      <stop offset="100%" stop-color="#facc15"/>
    </linearGradient>
  </defs>
  <rect width="1600" height="1000" fill="#f8fafc"/>
  <text x="80" y="96" font-size="48" fill="#0f172a" font-weight="800">内容分发链路被改写</text>
  <text x="82" y="146" font-size="25" fill="#64748b" font-weight="500">从“用户搜索后点击”变成“AI 汇总后再分发”</text>
  
    <rect x="90" y="210" width="690" height="610" rx="28" fill="#ffffff" stroke="#cbd5e1" stroke-width="2" filter="url(#softShadow)"/>
    <rect x="820" y="210" width="690" height="610" rx="28" fill="#0f172a" stroke="#0f172a" stroke-width="2" filter="url(#softShadow)"/>
    <text x="435" y="280" text-anchor="middle" font-size="36" fill="#334155" font-weight="800">旧链路：人先看见你</text>
    <text x="1165" y="280" text-anchor="middle" font-size="36" fill="#ffffff" font-weight="800">新链路：AI 先筛一遍</text>
    
      <rect x="180" y="340" width="510" height="72" rx="18" fill="#eff6ff" stroke="#bfdbfe" stroke-width="2" />
      <text x="435" y="386" text-anchor="middle" font-size="29" fill="#1e3a8a" font-weight="700">用户搜索</text>
      
    <line x1="435" y1="415" x2="435" y2="445" stroke="#2563eb" stroke-width="4" stroke-linecap="round"/>
    <path d="M 427.2 428.8 L 435 445 L 442.8 428.8" stroke="#2563eb" stroke-width="4" stroke-linecap="round" stroke-linejoin="round" fill="none"/>
  
    
      <rect x="180" y="445" width="510" height="72" rx="18" fill="#f8fafc" stroke="#bfdbfe" stroke-width="2" />
      <text x="435" y="491" text-anchor="middle" font-size="29" fill="#1e3a8a" font-weight="700">点击页面</text>
      
    <line x1="435" y1="520" x2="435" y2="550" stroke="#2563eb" stroke-width="4" stroke-linecap="round"/>
    <path d="M 427.2 533.8 L 435 550 L 442.8 533.8" stroke="#2563eb" stroke-width="4" stroke-linecap="round" stroke-linejoin="round" fill="none"/>
  
    
      <rect x="180" y="550" width="510" height="72" rx="18" fill="#eff6ff" stroke="#bfdbfe" stroke-width="2" />
      <text x="435" y="596" text-anchor="middle" font-size="29" fill="#1e3a8a" font-weight="700">阅读比较</text>
      
    <line x1="435" y1="625" x2="435" y2="655" stroke="#2563eb" stroke-width="4" stroke-linecap="round"/>
    <path d="M 427.2 638.8 L 435 655 L 442.8 638.8" stroke="#2563eb" stroke-width="4" stroke-linecap="round" stroke-linejoin="round" fill="none"/>
  
    
      <rect x="180" y="655" width="510" height="72" rx="18" fill="#f8fafc" stroke="#bfdbfe" stroke-width="2" />
      <text x="435" y="701" text-anchor="middle" font-size="29" fill="#1e3a8a" font-weight="700">咨询/转化</text>
      
    
    
      <rect x="925" y="330" width="480" height="62" rx="16" fill="#334155" stroke="#475569" stroke-width="2" />
      <text x="1165" y="370" text-anchor="middle" font-size="26" fill="#e2e8f0" font-weight="700">用户提问</text>
      
    <line x1="1165" y1="394" x2="1165" y2="416" stroke="#38bdf8" stroke-width="4" stroke-linecap="round"/>
    <path d="M 1157.2 399.8 L 1165 416 L 1172.8 399.8" stroke="#38bdf8" stroke-width="4" stroke-linecap="round" stroke-linejoin="round" fill="none"/>
  
    
      <rect x="925" y="416" width="480" height="62" rx="16" fill="#1e293b" stroke="#475569" stroke-width="2" />
      <text x="1165" y="456" text-anchor="middle" font-size="26" fill="#e2e8f0" font-weight="700">AI 检索多源</text>
      
    <line x1="1165" y1="480" x2="1165" y2="502" stroke="#38bdf8" stroke-width="4" stroke-linecap="round"/>
    <path d="M 1157.2 485.8 L 1165 502 L 1172.8 485.8" stroke="#38bdf8" stroke-width="4" stroke-linecap="round" stroke-linejoin="round" fill="none"/>
  
    
      <rect x="925" y="502" width="480" height="62" rx="16" fill="#334155" stroke="#475569" stroke-width="2" />
      <text x="1165" y="542" text-anchor="middle" font-size="26" fill="#e2e8f0" font-weight="700">摘要 / 重排</text>
      
    <line x1="1165" y1="566" x2="1165" y2="588" stroke="#38bdf8" stroke-width="4" stroke-linecap="round"/>
    <path d="M 1157.2 571.8 L 1165 588 L 1172.8 571.8" stroke="#38bdf8" stroke-width="4" stroke-linecap="round" stroke-linejoin="round" fill="none"/>
  
    
      <rect x="925" y="588" width="480" height="62" rx="16" fill="#1e293b" stroke="#475569" stroke-width="2" />
      <text x="1165" y="628" text-anchor="middle" font-size="26" fill="#e2e8f0" font-weight="700">答案引用</text>
      
    <line x1="1165" y1="652" x2="1165" y2="674" stroke="#38bdf8" stroke-width="4" stroke-linecap="round"/>
    <path d="M 1157.2 657.8 L 1165 674 L 1172.8 657.8" stroke="#38bdf8" stroke-width="4" stroke-linecap="round" stroke-linejoin="round" fill="none"/>
  
    
      <rect x="925" y="674" width="480" height="62" rx="16" fill="#334155" stroke="#475569" stroke-width="2" />
      <text x="1165" y="714" text-anchor="middle" font-size="26" fill="#e2e8f0" font-weight="700">少数点击</text>
      
    
    
    <line x1="770" y1="515" x2="830" y2="515" stroke="#f97316" stroke-width="6" stroke-linecap="round"/>
    <path d="M 813.8 522.8 L 830 515 L 813.8 507.2" stroke="#f97316" stroke-width="6" stroke-linecap="round" stroke-linejoin="round" fill="none"/>
  
    <rect x="315" y="850" width="970" height="66" rx="18" fill="#fff7ed" stroke="#fdba74" stroke-width="2" />
    <text x="800" y="893" text-anchor="middle" font-size="27" fill="#9a3412" font-weight="800">增长前置：不只优化页面转化，还要优化 AI 为什么把你放进候选答案</text>
  
  </svg>